<svg width="22" height="22" viewBox="0 0 22 22" fill="none" xmlns="http://www.w3.org/2000/svg">
<path d="M10.7 3.79065C6.90005 3.79065 3.80005 6.88294 3.80005 10.6735C3.80005 14.464 6.90005 17.5563 10.7 17.5563C14.5 17.5563 17.6 14.464 17.6 10.6735C17.6 6.88294 14.5 3.79065 10.7 3.79065ZM11.4 15.4615H10.1V14.1648H11.4V15.4615ZM12.7 10.3742L12.2 10.9727C11.7 11.4715 11.4 11.8705 11.4 12.868H10.1V12.5688C10.1 11.8705 10.4 11.1722 10.9 10.6735L11.7 9.87547C11.9 9.57622 12 9.27697 12 8.87796C12 8.1797 11.4 7.5812 10.7 7.5812C10 7.5812 9.40005 8.1797 9.40005 8.87796H8.10005C8.10005 7.38169 9.30005 6.28443 10.7 6.28443C12.2 6.28443 13.3 7.48145 13.3 8.87796C13.4 9.47647 13.1 9.97523 12.7 10.3742Z" fill="#FAFAFA"/>
<path opacity="0.15" d="M10.7 19.6515C15.6705 19.6515 19.7 15.6321 19.7 10.6739C19.7 5.7157 15.6705 1.69629 10.7 1.69629C5.72939 1.69629 1.69995 5.7157 1.69995 10.6739C1.69995 15.6321 5.72939 19.6515 10.7 19.6515Z" fill="#FAFAFA"/>
<path opacity="0.1" d="M10.7 21.3468C16.6094 21.3468 21.4 16.5681 21.4 10.6734C21.4 4.77864 16.6094 0 10.7 0C4.79055 0 0 4.77864 0 10.6734C0 16.5681 4.79055 21.3468 10.7 21.3468Z" fill="#FAFAFA"/>
</svg>
