<svg width="87" height="34" viewBox="0 0 87 34" fill="none" xmlns="http://www.w3.org/2000/svg">
<rect x="0.5" y="0.5" width="86" height="33" rx="2.5" fill="white" stroke="#EDE9E9"/>
<path d="M26.7272 22.5169C26.7564 22.8646 26.8953 23.2124 27.1438 23.5602C27.3923 23.908 27.5166 24.1653 27.5166 24.3323V24.4157C27.5166 24.68 27.3412 24.8122 26.9903 24.8122H22.6046C22.2537 24.8122 22.0783 24.68 22.0783 24.4157V24.3323C22.0783 24.1792 22.2171 23.9288 22.4949 23.5811C22.7727 23.2333 22.8969 22.8785 22.8677 22.5169L22.6484 18.8234C22.5899 17.7801 22.4437 17.0428 22.2098 16.6116C21.9759 16.1664 21.6178 15.9438 21.1353 15.9438C20.6967 15.9438 20.3605 16.1247 20.1266 16.4864C19.8927 16.848 19.7757 17.328 19.7757 17.9262C19.8196 18.2183 19.8415 18.5104 19.8415 18.8026V22.5169C19.8415 22.8646 19.9731 23.2124 20.2362 23.5602C20.4994 23.908 20.631 24.1653 20.631 24.3323V24.4157C20.631 24.68 20.4555 24.8122 20.1047 24.8122H15.7409C15.39 24.8122 15.2146 24.68 15.2146 24.4157V24.3323C15.2146 24.1653 15.3388 23.908 15.5873 23.5602C15.8505 23.2124 15.9821 22.8646 15.9821 22.5169V18.5522C15.9821 16.8133 15.485 15.9438 14.4909 15.9438C14.0085 15.9438 13.643 16.1247 13.3945 16.4864C13.1459 16.848 13.0217 17.328 13.0217 17.9262V22.5169C13.0217 22.8646 13.1825 23.2124 13.5041 23.5602C13.8257 23.908 13.9866 24.1653 13.9866 24.3323V24.4157C13.9866 24.68 13.8111 24.8122 13.4603 24.8122H8.72365C8.37279 24.8122 8.19736 24.68 8.19736 24.4157V24.3323C8.19736 24.1653 8.35817 23.908 8.67979 23.5602C9.00141 23.2124 9.16222 22.8646 9.16222 22.5169V18.4061C9.16222 18.1279 9.05989 17.8914 8.85522 17.6966C8.66517 17.488 8.47512 17.3071 8.28507 17.1541C8.09502 17.0011 8 16.8411 8 16.6742V16.6116C8 16.4307 8.17543 16.2568 8.52629 16.0899L11.8156 14.6501C12.0787 14.5388 12.2834 14.5388 12.4296 14.6501C12.5758 14.7614 12.6489 14.9283 12.6489 15.1509V15.9021C13.3214 15.0118 14.2936 14.5666 15.5654 14.5666C17.1881 14.5666 18.3869 15.137 19.1617 16.2777C19.4541 15.7352 19.8854 15.3178 20.4555 15.0257C21.0257 14.7196 21.6762 14.5666 22.4072 14.5666C23.4744 14.5666 24.3808 14.9074 25.1264 15.5891C25.8866 16.2707 26.3251 17.3906 26.4421 18.9486L26.7272 22.5169Z" fill="#404040"/>
<path d="M38.7424 22.5169C38.7863 22.8507 38.8667 23.122 38.9836 23.3307C39.1152 23.5254 39.2395 23.6506 39.3564 23.7063C39.488 23.7619 39.6049 23.8315 39.7073 23.9149C39.8096 23.9984 39.8608 24.1027 39.8608 24.2279C39.8608 24.687 39.0348 24.9165 37.3828 24.9165C36.7103 24.9165 36.206 24.84 35.8697 24.687C35.5481 24.534 35.3434 24.2766 35.2557 23.9149C34.7002 24.6383 33.7719 25 32.4708 25C31.2428 25 30.2414 24.7287 29.4665 24.1862C28.7063 23.6437 28.3262 22.8577 28.3262 21.8283C28.3262 20.8266 28.7063 20.0476 29.4665 19.4912C30.2267 18.9208 31.1624 18.6356 32.2734 18.6356C33.1359 18.6356 33.8742 18.8095 34.4882 19.1573V19.0947C34.342 17.7175 34.1739 16.7854 33.9839 16.2986C33.8084 15.8117 33.4576 15.5682 32.9313 15.5682C32.595 15.5682 32.3246 15.7143 32.1199 16.0064C31.9152 16.2986 31.7617 16.6185 31.6594 16.9663C31.5717 17.3141 31.3963 17.634 31.1331 17.9262C30.87 18.2183 30.5191 18.3644 30.0805 18.3644C29.6273 18.3644 29.2546 18.2392 28.9622 17.9888C28.6844 17.7384 28.5455 17.4114 28.5455 17.008C28.5455 16.2012 28.9695 15.596 29.8174 15.1926C30.6653 14.7753 31.7033 14.5666 32.9313 14.5666C34.3932 14.5666 35.5993 14.9492 36.5495 15.7143C37.5144 16.4655 38.0845 17.488 38.26 18.7817L38.7424 22.5169ZM33.6769 23.9358C34.0131 23.9358 34.2836 23.7828 34.4882 23.4767C34.7075 23.1707 34.8172 22.8229 34.8172 22.4334L34.7294 21.4735C34.5832 20.3189 34.1301 19.7416 33.3699 19.7416C33.0336 19.7416 32.7632 19.8737 32.5585 20.138C32.3538 20.3884 32.2515 20.7293 32.2515 21.1605C32.2515 21.9395 32.3758 22.6003 32.6243 23.1429C32.8874 23.6715 33.2383 23.9358 33.6769 23.9358Z" fill="#404040"/>
<path d="M52.3115 22.5169C52.3407 22.8646 52.4796 23.2124 52.7281 23.5602C52.9767 23.8941 53.1009 24.1514 53.1009 24.3323V24.4157C53.1009 24.68 52.9255 24.8122 52.5746 24.8122H48.1889C47.838 24.8122 47.6626 24.68 47.6626 24.4157V24.3323C47.6626 24.1653 47.8015 23.908 48.0793 23.5602C48.357 23.2124 48.4813 22.8646 48.452 22.5169L48.2328 18.7817C48.1743 17.7523 48.0281 17.0219 47.7942 16.5907C47.5749 16.1594 47.2167 15.9438 46.7197 15.9438C46.2519 15.9438 45.8937 16.1247 45.6452 16.4864C45.4113 16.848 45.2943 17.3419 45.2943 17.9679V22.5169C45.2943 22.8646 45.4551 23.2124 45.7767 23.5602C46.0984 23.908 46.2592 24.1653 46.2592 24.3323V24.4157C46.2592 24.68 46.0837 24.8122 45.7329 24.8122H40.9963C40.6454 24.8122 40.47 24.68 40.47 24.4157V24.3323C40.47 24.1653 40.6308 23.908 40.9524 23.5602C41.274 23.2124 41.4348 22.8646 41.4348 22.5169V18.4061C41.4348 18.114 41.3398 17.8705 41.1498 17.6758C40.9597 17.4671 40.7624 17.2932 40.5577 17.1541C40.3676 17.0011 40.2726 16.8411 40.2726 16.6742V16.6116C40.2726 16.4307 40.448 16.2568 40.7989 16.0899L43.8689 14.6501C44.1467 14.5388 44.3514 14.5388 44.4829 14.6501C44.6291 14.7475 44.7022 14.9144 44.7022 15.1509V16.1316C45.3162 15.0883 46.3615 14.5666 47.838 14.5666C48.9345 14.5666 49.8774 14.9074 50.6669 15.5891C51.4563 16.2707 51.9095 17.3767 52.0264 18.9069L52.3115 22.5169Z" fill="#404040"/>
<path d="M65.0348 22.5169C65.0348 22.8646 65.181 23.2124 65.4734 23.5602C65.7658 23.8941 65.912 24.1445 65.912 24.3114V24.3949C65.912 24.6592 65.7438 24.7913 65.4076 24.7913H62.2718C61.8917 24.7913 61.7016 24.6174 61.7016 24.2697V24.0819C61.0145 24.694 60.1228 25 59.0263 25C57.6083 25 56.3876 24.5409 55.3642 23.6228C54.3555 22.6907 53.8511 21.4109 53.8511 19.7833C53.8511 18.267 54.3628 17.0219 55.3862 16.0482C56.4095 15.0605 57.6302 14.5666 59.0483 14.5666C59.94 14.5666 60.6929 14.7614 61.3069 15.1509V12.3756C61.3069 12.0974 61.2119 11.8609 61.0218 11.6661C60.8318 11.4575 60.6344 11.2836 60.4298 11.1445C60.2397 10.9914 60.1447 10.8315 60.1447 10.6645V10.6019C60.1447 10.3376 60.3128 10.1568 60.6491 10.0594L64.0699 9.07865C64.7132 8.8839 65.0348 9.05083 65.0348 9.57945V22.5169ZM59.9035 23.9775C60.2982 23.9914 60.6271 23.8384 60.8903 23.5185C61.168 23.1985 61.3069 22.7673 61.3069 22.2247V18.1974C61.3069 17.5297 61.1022 16.9315 60.6929 16.4029C60.2982 15.8604 59.845 15.5891 59.3333 15.5891C58.2515 15.5891 57.6741 16.4446 57.601 18.1557C57.5717 18.8095 57.6302 19.5677 57.7764 20.4302C57.9372 21.2927 58.2003 22.0995 58.5658 22.8507C58.9459 23.588 59.3918 23.9636 59.9035 23.9775Z" fill="#404040"/>
<path d="M78.0571 22.496C78.0571 22.8716 78.1009 23.1568 78.1886 23.3515C78.291 23.5463 78.4006 23.6576 78.5176 23.6854C78.6491 23.6993 78.7588 23.748 78.8465 23.8315C78.9488 23.9149 79 24.0471 79 24.2279C79 24.4922 78.8099 24.6731 78.4298 24.7705C78.0644 24.8678 77.5015 24.9165 76.7413 24.9165C76.0542 24.9165 75.5499 24.8261 75.2282 24.6453C74.9212 24.4644 74.7385 24.1514 74.68 23.7063C74.0953 24.5688 73.0646 25 71.5881 25C70.4185 25 69.4391 24.6383 68.6496 23.9149C67.8748 23.1776 67.4874 22.1691 67.4874 20.8892V17.4045C67.4874 17.0428 67.3412 16.695 67.0488 16.3612C66.7564 16.0273 66.6102 15.7908 66.6102 15.6517V15.5682C66.6102 15.29 66.7784 15.13 67.1146 15.0883L70.382 14.6709C71.0691 14.5875 71.4126 14.7266 71.4126 15.0883L71.3469 21.2648C71.3322 22.0995 71.4346 22.7047 71.6539 23.0803C71.8878 23.4419 72.2533 23.6228 72.7503 23.6228C73.1596 23.6228 73.5032 23.435 73.781 23.0594C74.0587 22.6699 74.1976 22.1621 74.1976 21.5361V17.4045C74.1976 17.0428 74.0514 16.695 73.759 16.3612C73.4666 16.0273 73.3204 15.7908 73.3204 15.6517V15.5682C73.3204 15.29 73.4886 15.13 73.8248 15.0883L77.0922 14.6709C77.7354 14.5875 78.0571 14.7266 78.0571 15.0883V22.496Z" fill="#404040"/>
<path d="M69.6276 13.4419C69.3776 13.6798 68.9722 13.6798 68.7221 13.4419L67.2816 12.0711C67.0315 11.8332 67.0315 11.4474 67.2816 11.2095L68.7221 9.83868C68.9722 9.60075 69.3776 9.60075 69.6276 9.83868L71.0682 11.2095C71.3182 11.4474 71.3182 11.8332 71.0682 12.0711L69.6276 13.4419Z" fill="#404040"/>
<path d="M76.2457 13.4419C75.9957 13.6798 75.5903 13.6798 75.3402 13.4419L73.8997 12.0711C73.6496 11.8332 73.6496 11.4474 73.8997 11.2095L75.3402 9.83868C75.5903 9.60075 75.9957 9.60075 76.2457 9.83868L77.6863 11.2095C77.9363 11.4474 77.9363 11.8332 77.6863 12.0711L76.2457 13.4419Z" fill="#404040"/>
</svg>
